#N canvas 759 194 580 459 12;
#X obj 301 194 *~;
#X obj 346 172 hsl 162 19 0 8 0 0 empty empty Gain -2 -8 0 12 #c6ffc7 #000000 #000000 0 1;
#X obj 299 308 *~;
#X obj 343 305 hsl 162 19 0 1 0 0 empty empty Output -2 -8 0 12 #c6ffc7 #000000 #000000 0 1;
#X obj 297 351 dac~;
#X obj 306 135 readsf~;
#X obj 239 304 *~;
#X floatatom 200 260 5 0 1 0 - - - 0.2;
#X obj 286 266 *~;
#X obj 341 226 rev2~ 100 90 3000 20;
#X floatatom 409 199 5 0 0 0 - - - 1.3;
#X floatatom 481 197 5 0 0 0 - - - 0.5;
#X obj 411 120 bng 19 250 50 0 empty empty empty 0 -10 0 12 #fcfcfc #000000 #000000;
#X msg 204 113 0;
#X msg 306 82 open Playground.wav \, 1;
#X connect 0 0 6 0;
#X connect 0 0 9 0;
#X connect 1 0 0 1;
#X connect 2 0 4 1;
#X connect 3 0 2 1;
#X connect 3 0 8 1;
#X connect 5 0 0 0;
#X connect 5 1 12 0;
#X connect 6 0 4 0;
#X connect 6 0 4 1;
#X connect 7 0 6 1;
#X connect 8 0 4 0;
#X connect 9 0 8 0;
#X connect 9 1 2 0;
#X connect 10 0 9 2;
#X connect 11 0 9 4;
#X connect 12 0 14 0;
#X connect 13 0 5 0;
#X connect 14 0 5 0;
